# xmcd CD database file
#
# Track frame offsets:
#	150
#	27727
#	51877
#	67922
#	83355
#	110135
#	146532
#	164807
#	194160
#	211677
#
# Disc length: 3188 seconds
#
# Revision: 2
# Processed by: cddbd v1.5.1PL2 Copyright (c) Steve Scherf et al.
# Submitted via: CDex 1.51
#
DISCID=930c720a
DTITLE=NATURAL CALAMITY - NIGHT IS INDIGO
DYEAR=2004
DGENRE=Chill Out
TTITLE0=Like Wind Blows
TTITLE1=When You Gonna Wake Me Up
TTITLE2=Night Is Indigo
TTITLE3=Sand and Shade
TTITLE4=Two Seconds Too Late
TTITLE5=A Day Of Interlude
TTITLE6=Life
TTITLE7=Chocolate Martini
TTITLE8=If Not For You
TTITLE9=Through The Green Slowly
EXTD=YEAR: 2004
EXTT0=
EXTT1=
EXTT2=
EXTT3=
EXTT4=
EXTT5=
EXTT6=
EXTT7=
EXTT8=
EXTT9=
PLAYORDER=
